<svg width="24" height="24" viewBox="0 0 24 24" fill="none" xmlns="http://www.w3.org/2000/svg">
<path d="M11.5 1.1 C7.6 1.3 4.2 3.5 2.4 6.8 L8.6 10.4 C9.2 9.2 10.5 8.4 12 8.4 L17.3 1.9 C15.6 1.2 13.6 0.9 11.5 1.1 Z" fill="black"/>
<path d="M18.2 2.4 L13.7 8.8 C15.1 9.4 16 10.8 15.6 12.4 L22.3 17 C24.8 11.9 23.1 5.8 18.2 2.4 Z" fill="black"/>
<path d="M21.7 18 L15.1 13.5 C14.5 14.7 13.4 15.5 12 15.6 L8.4 22.6 C13.5 24.3 19.1 22.4 21.7 18 Z" fill="black"/>
<path d="M7.3 22.1 L10.9 15.4 C9.4 15 8.3 13.7 8.3 12.1 L1.7 8 C-0.5 13.4 1.7 19.5 7.3 22.1 Z" fill="black"/>
<path d="M14.2 12 C14.2 13.2 13.2 14.2 12 14.2 C10.8 14.2 9.8 13.2 9.8 12 C9.8 10.8 10.8 9.8 12 9.8 C13.2 9.8 14.2 10.8 14.2 12 Z" fill="black"/>
</svg>
