<svg width="24" height="24" viewBox="0 0 24 24" fill="none" xmlns="http://www.w3.org/2000/svg">
<path d="M22.6 13.3 C22.6 7.3 18.2 2.4 12.1 2.4 C6.3 2.4 1.6 6.9 1.4 12.6 C3.2 9.8 6.3 8.1 9.8 8.1 C13.7 8.1 16.6 10 16.9 12.4 L7.4 12.4 C6.9 12.4 6.5 12.8 6.5 13.3 C6.5 16.6 9.1 19.2 12.7 19.2 C15.4 19.2 17.7 18.2 19.5 16.4 C18.6 19.7 15.6 22 11.8 22 C5.6 22 1 18.1 1 12.5 C1 6.1 5.9 1 12.2 1 C18.9 1 23 6 23 12.3 C23 12.7 22.9 13 22.6 13.3 Z" fill="black"/>
<path d="M8.8 15 C9.5 16.2 10.8 16.8 12.6 16.8 C14.1 16.8 15.4 16.4 16.5 15.6 C15.4 17 13.8 17.8 11.9 17.8 C9.7 17.8 8.2 16.8 8.8 15 Z" fill="black"/>
</svg>
