<svg width="24" height="24" viewBox="0 0 24 24" fill="none" xmlns="http://www.w3.org/2000/svg">
<path d="M20.5 11.4 C20.5 16.2 16.7 20 12 20 C7.3 20 3.5 16.2 3.5 11.4 C3.5 6.7 7.3 3 12 3 C16.7 3 20.5 6.7 20.5 11.4 Z" fill="none" stroke="black" stroke-width="2.6" stroke-linecap="round" stroke-linejoin="round"/>
<path d="M15.6 18.4 L20.4 22" fill="none" stroke="black" stroke-width="2.6" stroke-linecap="round" stroke-linejoin="round"/>
<path d="M8.2 14.8 L10.8 8.2 L17.4 5.6 L14.8 12.2 L8.2 14.8 Z" fill="black"/>
<path d="M13.8 9.2 C13.8 10.2 13 11 12 11 C11 11 10.2 10.2 10.2 9.2 C10.2 8.2 11 7.4 12 7.4 C13 7.4 13.8 8.2 13.8 9.2 Z" fill="black"/>
</svg>
