<svg width="35" height="28" viewBox="0 0 35 28" fill="none" xmlns="http://www.w3.org/2000/svg">
<path d="M8.44043 0.31845C9.40694 0.318605 10.3479 0.633068 11.1211 1.21298L12.1143 1.95712C12.6298 2.34369 13.257 2.55282 13.9014 2.55282H15.0781L6.21094 7.67294C5.3189 8.18796 4.61045 8.59616 4.06738 8.97177C3.51726 9.35229 3.08192 9.7358 2.76367 10.2257C2.24985 11.017 1.99948 11.9515 2.04883 12.8936C2.07951 13.477 2.26467 14.0264 2.55078 14.6309C2.83328 15.2278 3.24275 15.9361 3.75781 16.8282L7.48145 23.2774C7.74201 23.7288 7.9758 24.1327 8.19141 24.4923V24.8936C8.19117 26.5384 6.85767 27.8719 5.21289 27.8722H4.46875C2.00125 27.8722 0.00025328 25.8718 0 23.4044V2.9249C0.00044865 1.48594 1.16743 0.318652 2.60645 0.31845H8.44043ZM33.1387 12.2345C34.1667 12.2347 35 13.0677 35 14.0958V24.8936C34.9998 25.9844 34.4109 26.9344 33.5361 27.4532C32.9625 27.721 32.3232 27.8722 31.6484 27.8722H8.54297C9.25048 27.0818 9.68153 26.0379 9.68164 24.8936V14.0958C9.68164 13.0676 10.5148 12.2345 11.543 12.2345H33.1387ZM23.3564 0.00106728C23.9035 0.0157076 24.4379 0.180936 24.8994 0.480559C24.9355 0.504023 24.9709 0.528813 25.0059 0.554778C25.2297 0.723596 25.4569 0.97244 25.7402 1.38193C26.0658 1.85256 26.4296 2.48211 26.9385 3.36337L30.7354 9.93857C30.9051 10.2333 31.057 10.5008 31.1953 10.7442H11.543C9.69223 10.7442 8.19141 12.2451 8.19141 14.0958V21.5274L5.04785 16.0831C4.52051 15.1697 4.1479 14.5224 3.89746 13.9933C3.65099 13.4725 3.55239 13.1244 3.53613 12.8155C3.50324 12.1874 3.67016 11.5647 4.0127 11.0372C4.18118 10.7778 4.44026 10.5251 4.91406 10.1974C5.3955 9.86437 6.04272 9.4903 6.95605 8.96298L19.8535 1.51669C20.7671 0.989262 21.4152 0.615788 21.9443 0.365325C22.3952 0.151961 22.7165 0.048967 22.9951 0.0147392C23.0317 0.0105459 23.0681 0.00718654 23.1045 0.00497353C23.1103 0.00460878 23.1163 0.00430295 23.1221 0.00399696C23.2003 -0.000100433 23.2785 -0.000992125 23.3564 0.00106728Z" fill="black"/>
</svg>
