<svg width="36" height="30" viewBox="0 0 36 30" fill="none" xmlns="http://www.w3.org/2000/svg">
<path d="M8.62305 1.08704C9.61074 1.08704 10.5721 1.40755 11.3623 2.00012L12.377 2.76086C12.9037 3.15585 13.5447 3.36922 14.2031 3.36926H15.4072L13.0361 4.73743C12.4716 4.58804 11.9367 4.33321 11.4639 3.97864L10.4492 3.21692C9.92247 2.82199 9.28141 2.60852 8.62305 2.60852H2.66309C2.0329 2.60862 1.52158 3.11994 1.52148 3.75012V24.674C1.52151 26.3547 2.88466 27.7168 4.56543 27.7169H7.6084V29.2394H4.56543C2.04422 29.2393 2.37085e-05 27.1952 0 24.674V3.75012C9.53143e-05 2.2795 1.19247 1.08714 2.66309 1.08704H8.62305Z" fill="black"/>
<path d="M23.5842 0.0051899C24.3864 -0.0368143 25.1819 0.177035 25.8557 0.614565C26.2797 0.890008 26.6066 1.26354 26.9231 1.72101C27.2344 2.17119 27.5717 2.75675 27.9914 3.48371L32.2522 10.8636C32.2744 10.9021 32.2958 10.9411 32.3176 10.9788H30.5608L26.6731 4.24445C26.2409 3.49589 25.9389 2.97441 25.6711 2.58722C25.4083 2.20727 25.2152 2.01244 25.0266 1.88996C24.6224 1.62757 24.1455 1.50054 23.6643 1.5257C23.4398 1.53747 23.1753 1.60849 22.758 1.80597C22.3325 2.00741 21.8095 2.30823 21.0608 2.74054L7.09103 10.806C6.34263 11.2381 5.82097 11.5402 5.43381 11.8079C5.05385 12.0707 4.85903 12.2648 4.73654 12.4534C4.47439 12.8574 4.34626 13.3339 4.37131 13.8148C4.38308 14.0393 4.45491 14.3044 4.65256 14.722C4.85397 15.1475 5.15491 15.6697 5.58713 16.4183L7.60861 19.9193V22.9622L4.26974 17.179C3.85 16.452 3.51174 15.8672 3.27756 15.3724C3.03969 14.8698 2.87835 14.4006 2.85178 13.8958C2.80973 13.0935 3.02261 12.2971 3.46017 11.6234C3.73561 11.1993 4.11012 10.8734 4.5676 10.5569C5.0178 10.2456 5.60326 9.90834 6.33029 9.48859L20.3 1.42316C21.027 1.00344 21.6119 0.665182 22.1067 0.430971C22.6094 0.193049 23.0793 0.0317124 23.5842 0.0051899Z" fill="black"/>
<path d="M4.94556 28.4784H31.1956C33.2967 28.4784 35 26.7751 35 24.6741V14.4023C35 13.3518 34.1483 12.5001 33.0978 12.5001H11.0325C9.98198 12.5001 9.13035 13.3518 9.13035 14.4023V24.6741C9.13035 26.7751 7.42708 28.4784 5.32599 28.4784H4.94556Z" stroke="black" stroke-width="1.52174"/>
</svg>
