<svg width="39" height="29" viewBox="0 0 39 29" fill="none" xmlns="http://www.w3.org/2000/svg">
<path d="M34.7709 4.64294C35.2643 4.71072 35.7049 4.82624 36.1156 5.03552C36.9698 5.47085 37.6647 6.16562 38.1 7.0199C38.3694 7.54886 38.485 8.12664 38.5404 8.80408C38.5951 9.47292 38.5941 10.3041 38.5941 11.351V21.9457C38.5941 22.9927 38.595 23.8237 38.5404 24.4926C38.485 25.1703 38.3696 25.7486 38.1 26.2777C37.6647 27.132 36.9699 27.8268 36.1156 28.2621C35.5864 28.5317 35.0082 28.6471 34.3304 28.7025C33.6616 28.7572 32.8306 28.7572 31.7836 28.7572H11.351C10.3041 28.7572 9.47292 28.7572 8.80408 28.7025C8.12664 28.6471 7.54886 28.5315 7.0199 28.2621C6.16561 27.8268 5.47085 27.132 5.03552 26.2777C4.82624 25.867 4.71071 25.4264 4.64294 24.933C5.09596 24.9564 5.60602 24.9641 6.18396 24.9672C6.23418 25.2244 6.29816 25.4214 6.38416 25.5902C6.67433 26.1597 7.13696 26.6232 7.70642 26.9135C7.98665 27.0562 8.34397 27.146 8.9281 27.1937C9.52097 27.2421 10.2793 27.2435 11.351 27.2435H31.7836C32.8556 27.2435 33.6144 27.2422 34.2074 27.1937C34.7913 27.146 35.1479 27.0562 35.4281 26.9135C35.9977 26.6232 36.4611 26.1598 36.7513 25.5902C36.894 25.31 36.9839 24.9534 37.0316 24.3695C37.0801 23.7765 37.0814 23.0177 37.0814 21.9457V11.351C37.0814 10.2793 37.08 9.52098 37.0316 8.9281C36.9839 8.34396 36.8941 7.98665 36.7513 7.70642C36.4611 7.13695 35.9976 6.67433 35.4281 6.38416C35.2593 6.29816 35.0622 6.23418 34.8051 6.18396C34.802 5.60602 34.7943 5.09596 34.7709 4.64294Z" fill="black"/>
<rect x="0.756714" y="0.756775" width="32.5406" height="22.7027" rx="3.78379" stroke="black" stroke-width="1.51351"/>
<rect x="30.2701" y="14.3784" width="6.05406" height="2.27027" rx="0.756757" transform="rotate(90 30.2701 14.3784)" fill="#141414"/>
</svg>
