<svg width="38" height="28" viewBox="0 0 38 28" fill="none" xmlns="http://www.w3.org/2000/svg">
<path d="M34.0138 3.88574C34.5072 3.95356 34.9479 4.06921 35.3585 4.27832C36.2126 4.71355 36.9076 5.40866 37.3429 6.2627C37.6123 6.79154 37.7279 7.36964 37.7833 8.04688C37.838 8.71562 37.837 9.54706 37.837 10.5938V21.1885C37.837 22.2352 37.8379 23.0665 37.7833 23.7354C37.728 24.413 37.6125 24.9914 37.3429 25.5205C36.9076 26.3748 36.2129 27.0696 35.3585 27.5049C34.8294 27.7744 34.251 27.8899 33.5734 27.9453C32.9045 27.9999 32.0733 28 31.0265 28H10.5939C9.54719 28 8.71574 28 8.047 27.9453C7.36977 27.8899 6.79166 27.7743 6.26282 27.5049C5.40877 27.0696 4.71367 26.3746 4.27844 25.5205C4.06933 25.1099 3.95368 24.6692 3.88586 24.1758C4.60276 24.2129 5.46262 24.2158 6.50793 24.2158H26.0323C27.2912 24.2158 28.2812 24.2163 29.0763 24.1514C29.8802 24.0857 30.5521 23.9495 31.1622 23.6387C32.1587 23.1309 32.9689 22.3207 33.4767 21.3242C33.7875 20.7141 33.9237 20.0422 33.9894 19.2383C34.0543 18.4432 34.0538 17.4532 34.0538 16.1943V6.50781C34.0538 5.46249 34.0509 4.60264 34.0138 3.88574Z" fill="black"/>
<path d="M26.4863 3.06625e-10C28.6053 3.06625e-10 29.6652 -0.000235516 30.4746 0.412109C31.1866 0.774874 31.7652 1.35444 32.1279 2.06641C32.5402 2.87573 32.541 3.93502 32.541 6.05371V16.6484C32.541 18.7676 32.5403 19.8273 32.1279 20.6367C31.7652 21.3486 31.1865 21.9273 30.4746 22.29C29.6652 22.7024 28.6054 22.7031 26.4863 22.7031H6.05371C3.93501 22.7031 2.87573 22.7023 2.06641 22.29C1.35444 21.9273 0.774874 21.3487 0.412109 20.6367C-0.000220859 19.8273 2.52922e-10 18.7674 2.52922e-10 16.6484V6.05371C1.51303e-09 3.93522 -4.45714e-05 2.8757 0.412109 2.06641C0.774874 1.35444 1.35444 0.774874 2.06641 0.412109C2.8757 -4.43977e-05 3.93522 1.58601e-09 6.05371 3.06625e-10H26.4863ZM28.3789 13.6211C28.0267 13.6211 27.8499 13.6213 27.7109 13.6787C27.5255 13.7555 27.3776 13.9034 27.3008 14.0889C27.2433 14.2279 27.2432 14.4044 27.2432 14.7568V18.54C27.2432 18.8923 27.2433 19.069 27.3008 19.208C27.3776 19.3934 27.5255 19.5414 27.7109 19.6182C27.8499 19.6756 28.0267 19.6758 28.3789 19.6758C28.7312 19.6758 28.9079 19.6757 29.0469 19.6182C29.2322 19.5413 29.3793 19.3933 29.4561 19.208C29.5135 19.069 29.5137 18.8924 29.5137 18.54V14.7568C29.5137 14.4044 29.5136 14.2279 29.4561 14.0889C29.3793 13.9035 29.2322 13.7555 29.0469 13.6787C28.9079 13.6211 28.7312 13.6211 28.3789 13.6211Z" fill="black"/>
</svg>
