<svg width="640" height="448" viewBox="0 0 640 448" fill="none" xmlns="http://www.w3.org/2000/svg">
<mask id="mask0_11029_4380" style="mask-type:alpha" maskUnits="userSpaceOnUse" x="0" y="0" width="640" height="448">
<path d="M640 135.529V152C640 174.091 622.091 192 600 192C577.909 192 560 174.091 560 152V129.778C560 113.196 560 104.906 557.002 98.4762C553.822 91.6578 548.342 86.1776 541.524 82.9982C535.094 80 526.804 80 510.222 80H131.2C113.278 80 104.317 80 97.4723 83.4878C91.4511 86.5557 86.5557 91.4511 83.4878 97.4723C80 104.317 80 113.278 80 131.2V316.8C80 334.722 80 343.683 83.4878 350.528C86.5557 356.549 91.4511 361.444 97.4723 364.512C104.317 368 113.278 368 131.2 368H472C494.091 368 512 385.909 512 408C512 430.091 494.091 448 472 448H153.6C99.835 448 72.9524 448 52.4169 437.537C34.3534 428.333 19.6672 413.647 10.4634 395.583C0 375.048 0 348.165 0 294.4V153.6C0 99.835 0 72.9524 10.4634 52.4169C19.6672 34.3534 34.3534 19.6672 52.4169 10.4634C72.9524 0 99.835 0 153.6 0H504.471C541.263 0 559.66 0 574.508 4.97658C603.053 14.5438 625.456 36.9473 635.023 65.492C640 80.3401 640 98.7365 640 135.529Z" fill="#D9D9D9"/>
<rect x="560" y="288" width="80" height="160" rx="40" fill="#D9D9D9"/>
</mask>
<g mask="url(#mask0_11029_4380)">
<path d="M0 0H640V448H0V0Z" fill="url(#paint0_linear_11029_4380)"/>
</g>
<defs>
<linearGradient id="paint0_linear_11029_4380" x1="0" y1="0" x2="640" y2="448" gradientUnits="userSpaceOnUse">
<stop stop-color="#FEA352"/>
<stop offset="1" stop-color="#FD5C04"/>
</linearGradient>
</defs>
</svg>
